<svg width="5" height="9" viewBox="0 0 5 9" fill="none" xmlns="http://www.w3.org/2000/svg">
<path d="M4.5 4.49999C4.5 4.39774 4.4591 4.30367 4.38139 4.23005L1.14213 1.05623C1.06851 0.9867 0.978528 0.94989 0.872188 0.94989C0.663599 0.94989 0.5 1.1094 0.5 1.32208C0.5 1.42433 0.5409 1.5184 0.606339 1.58793L3.58384 4.49999L0.606339 7.41206C0.5409 7.48159 0.5 7.57157 0.5 7.67791C0.5 7.89059 0.663599 8.0501 0.872188 8.0501C0.978528 8.0501 1.06851 8.01329 1.14213 7.93967L4.38139 4.76993C4.4591 4.69222 4.5 4.60224 4.5 4.49999Z" fill="#3C3C43" fill-opacity="0.6"/>
</svg>
