<svg width="36" height="36" viewBox="0 0 36 36" fill="none" xmlns="http://www.w3.org/2000/svg">
<path d="M22 11L25 8M25 8L28 11M25 8V14M18.5 9H13.8C12.1198 9 11.2798 9 10.638 9.32698C10.0735 9.6146 9.6146 10.0735 9.32698 10.638C9 11.2798 9 12.1198 9 13.8V22.2C9 23.8802 9 24.7202 9.32698 25.362C9.6146 25.9265 10.0735 26.3854 10.638 26.673C11.2798 27 12.1198 27 13.8 27H23C23.93 27 24.395 27 24.7765 26.8978C25.8117 26.6204 26.6204 25.8117 26.8978 24.7765C27 24.395 27 23.93 27 23M16.5 14.5C16.5 15.6046 15.6046 16.5 14.5 16.5C13.3954 16.5 12.5 15.6046 12.5 14.5C12.5 13.3954 13.3954 12.5 14.5 12.5C15.6046 12.5 16.5 13.3954 16.5 14.5ZM20.99 17.9181L12.5311 25.608C12.0554 26.0406 11.8175 26.2568 11.7964 26.4442C11.7782 26.6066 11.8405 26.7676 11.9632 26.8755C12.1048 27 12.4263 27 13.0693 27H22.456C23.8951 27 24.6147 27 25.1799 26.7582C25.8894 26.4547 26.4547 25.8894 26.7582 25.1799C27 24.6147 27 23.8951 27 22.456C27 21.9717 27 21.7296 26.9471 21.5042C26.8805 21.2208 26.753 20.9554 26.5733 20.7264C26.4303 20.5442 26.2412 20.3929 25.8631 20.0905L23.0658 17.8527C22.6874 17.5499 22.4982 17.3985 22.2898 17.3451C22.1061 17.298 21.9129 17.3041 21.7325 17.3627C21.5279 17.4291 21.3486 17.5921 20.99 17.9181Z" stroke="#3C3C43" stroke-opacity="0.6" stroke-width="2" stroke-linecap="round" stroke-linejoin="round"/>
</svg>
